<svg xmlns="http://www.w3.org/2000/svg" viewBox="0 0 748 100">
  <g transform="translate(0,-9) scale(1.84)">
    <path d="M27.98,51.79 A15,15 0 0 0 12.21,36.02" fill="none" stroke="#e9eef5" stroke-width="5.5" stroke-linecap="round"/>
    <path d="M39.46,52.39 A26.5,26.5 0 0 0 11.61,24.54" fill="none" stroke="#e9eef5" stroke-width="5.5" stroke-linecap="round"/>
    <path d="M50.95,52.99 A38,38 0 0 0 11.01,13.05" fill="none" stroke="#e9eef5" stroke-width="5.5" stroke-linecap="round"/>
    <path d="M27.14,36.86 L7.7,45.7 L18.3,56.3 Z" fill="#ff6b1a"/>
  </g>
  <g transform="translate(152,0)">
  <path d="M0,13 L13,0 L15,0 L28,13 L28,36 L48,36 L48,13 L61,0 L63,0 L76,13 L76,87 L63,100 L61,100 L48,87 L48,64 L28,64 L28,87 L15,100 L13,100 L0,87 Z M118.92,32 L89,100 L117,100 L127.88,32 Z M138.12,32 L149,100 L177,100 L147.08,32 Z M189,13 L202,0 L236,0 L249,13 L249,15 L236,28 L217,28 L217,36 L236,36 L249,49 L249,87 L236,100 L202,100 L189,87 L189,77 L202,64 L221,64 L221,72 L202,72 L189,59 Z M264,0 L278.52,100 L304,32 L329.48,100 L342.51,10.29 L354.4,0 L357.6,0 L366.51,10.29 L354.97,89.71 L349.83,90.26 L328,32 L306.17,90.26 L301.03,89.71 L288,0 Z M380,13 L393,0 L395,0 L408,13 L408,87 L395,100 L393,100 L380,87 Z M421,13 L434,0 L436,0 L455,11.53 L473,46.15 L473,13 L486,0 L488,0 L501,13 L501,87 L488,100 L486,100 L467,88.47 L449,53.85 L449,87 L436,100 L434,100 L421,87 Z M514,13 L527,0 L581,0 L594,13 L594,15 L581,28 L542,28 L542,72 L564,72 L564,50 L581,50 L594,63 L594,87 L581,100 L527,100 L514,87 Z" fill="#e9eef5"/>
  <path d="M133,0 L147.08,32 L118.92,32 Z" fill="#ff6b1a"/>
  </g>
</svg>
